<svg  id="Capa_1" fill='#ffff' data-name="Capa 1" xmlns="http://www.w3.org/2000/svg" viewBox="0 0 850.45 145.58"><g id="Layer_2" data-name="Layer 2"><g id="Layer_4" data-name="Layer 4"><path class="cls-1" d="M72.79,145.58a72.79,72.79,0,1,1,72.79-72.79A72.87,72.87,0,0,1,72.79,145.58ZM72.79,10a62.79,62.79,0,1,0,62.79,62.79A62.86,62.86,0,0,0,72.79,10Z"/><polygon class="cls-1" points="79.9 32.17 74.47 42.95 50.95 89.64 42.91 105.6 42.8 105.83 34.75 101.78 64.29 43.12 71.85 28.11 71.88 28.13 79.87 32.15 79.9 32.17"/><polygon class="cls-1" points="95.13 70.78 89.7 81.56 87.71 76.53 79.43 81.9 85.26 70.33 87.47 65.94 87.54 65.8 87.63 65.84 87.71 65.88 94.56 69.34 95.13 70.78"/><polygon class="cls-1" points="92.57 73.38 87.71 76.53 79.43 81.9 42.91 105.6 42.76 105.7 37.85 98.14 50.95 89.64 84.34 67.98 87.47 65.94 87.63 65.84 87.66 65.82 87.71 65.88 92.57 73.38"/><path class="cls-1" d="M71.93,28.09l3.81,8.15h0L59,44.06a9,9,0,0,1-12-4.34h0L71.93,28.09Z"/><path class="cls-1" d="M88.79,54.7h0a9,9,0,0,1-11.68-5.06v0l-2.63-6.68-1.88-4.78-1.07-2.72,3.82-1.51,4.53-1.78h0Z"/><polygon class="cls-1" points="107.85 103.4 99.71 107.38 97.67 101.8 94.91 94.79 89.7 81.56 87.71 76.53 85.26 70.33 84.34 67.98 87.47 65.94 87.54 65.8 87.63 65.84 87.66 65.82 87.71 65.88 94.56 69.34 95.13 70.78 103.11 91 107 100.88 107.85 103.4"/><path class="cls-1" d="M119.55,85.68h0l-11.7,17.72-10.35.95,9.66-15.71a9,9,0,0,1,12.38-3Z"/><path class="cls-1" d="M76.38,101.31h0a9,9,0,0,1,11-6.48h0l7,1.8,5,1.28,2.84.73-1,4L100,107.36h0Z"/><g class="cls-2"><g class="cls-2"><path class="cls-1" d="M222,83.27,220.82,77H195.57l-3.86,6.24a10.19,10.19,0,0,0-1.78,4.85,2.76,2.76,0,0,0,1.38,2.52,10.73,10.73,0,0,0,4.95.94l-1.38,6.64H172.5l1.38-6.64q4.56-.78,6.34-3.66l32.38-51.5-1.78-7.82h18.82l12.67,59.32q.6,3.08,5.05,3.66l-1.28,6.64H213l1.39-6.64q4.46-.19,6.28-1.18a3.42,3.42,0,0,0,1.84-3.27A18.71,18.71,0,0,0,222,83.27Zm-7-37.44L199.73,70.29h19.81Z"/><path class="cls-1" d="M281,52.76l-5.15,15.85h.7Q291.52,42.87,305,42.86a8.2,8.2,0,0,1,6.29,2.38,8.91,8.91,0,0,1,2.22,6.34,19.63,19.63,0,0,1-.59,4.35l-7.43,27.44a26,26,0,0,0-.89,4.06c0,1,.46,1.48,1.39,1.48a5,5,0,0,0,3.07-1.68,56.23,56.23,0,0,0,4.85-5.55L317,84.36a52.12,52.12,0,0,1-10,11.19,16,16,0,0,1-9.95,3.66,11,11,0,0,1-7.58-2.62,8.59,8.59,0,0,1-2.92-6.69A30.94,30.94,0,0,1,288,81.38L294.3,59.6a16.32,16.32,0,0,0,.5-3.27c0-1.19-.56-1.78-1.69-1.78q-3.17,0-9.85,9.5a64.23,64.23,0,0,0-9.65,20.8l-3.47,13.37h-18l15.25-63.48-6-4.36,1-3.36,22.57-4.16h3.47Z"/></g><g class="cls-2"><path class="cls-1" d="M343.92,99.21q-9.71,0-15.85-6.14t-6.14-16.64q0-14.16,9.11-23.86t23.57-9.71q9.7,0,15.85,6.14t6.14,16.64q0,14.16-9.11,23.86T343.92,99.21Zm.49-6.24c2.18,0,4.23-1.15,6.14-3.47a27.23,27.23,0,0,0,4.66-8.61A74.36,74.36,0,0,0,358,70.24a54.64,54.64,0,0,0,1-10q0-11.08-4.95-11.09-3.27,0-6.14,3.47a27.34,27.34,0,0,0-4.66,8.61,76.07,76.07,0,0,0-2.82,10.65,54.64,54.64,0,0,0-1,10Q339.46,93,344.41,93Z"/></g><g class="cls-2"><path class="cls-1" d="M402.83,74.85h.7q10.79-20.8,13.66-25,4.17-6.14,8.42-6.93c.6-.06,1.19-.1,1.78-.1a6.57,6.57,0,0,1,5.4,2.23,8.84,8.84,0,0,1,1.83,5.79,11.92,11.92,0,0,1-2.77,7.63,17.82,17.82,0,0,1-6,5.05h-2.18q0-3.57-2.77-3.57-5.44,0-11.19,10.06t-10.3,28.17h-18l10.79-43.47-4.95-4.66,1-3.37,21.39-4.16H413l-3.86,14.66Z"/></g><g class="cls-2"><path class="cls-1" d="M478.4,48.21l10.4-5.35h7l-4.06,14-6.53,26.54a19.38,19.38,0,0,0-.8,4.06c0,1,.46,1.48,1.39,1.48q2.18,0,7.82-7.23l3.17,2.68a52.12,52.12,0,0,1-9.95,11.19,16.09,16.09,0,0,1-10.05,3.66,9.24,9.24,0,0,1-7.23-3,11.13,11.13,0,0,1-2.67-7.73,13,13,0,0,1,.24-2.37c.17-.86.35-1.62.55-2.28s.49-1.65.89-3,.72-2.48,1-3.47h-.69q-2.19,4.56-4.11,7.88a56.39,56.39,0,0,1-4.71,6.78,20.17,20.17,0,0,1-6.19,5.3,15.16,15.16,0,0,1-7.28,1.83,11.73,11.73,0,0,1-9.65-4.7q-3.72-4.71-3.71-12.73a43.2,43.2,0,0,1,4.05-18.22A38.35,38.35,0,0,1,449.24,48.8a28.33,28.33,0,0,1,17.48-5.94,14.1,14.1,0,0,1,6.53,1.34A20.1,20.1,0,0,1,478.4,48.21Zm-23.07,39q4.85,0,10.59-10.25a82.3,82.3,0,0,0,8.52-23.62c-.46-1.19-.82-2-1.09-2.58A3.8,3.8,0,0,0,472,49.35a4.68,4.68,0,0,0-2.58-.64q-5,0-9.31,5.24a37.29,37.29,0,0,0-6.68,12.43,44.81,44.81,0,0,0-2.33,13.82C451.07,84.88,452.49,87.23,455.33,87.23Z"/></g><g class="cls-2"><path class="cls-1" d="M540.59,91.49a11.34,11.34,0,0,0,9.31-4.16q3.36-4.17,6.14-13.77h9.6l-1.58,19.11q-9.62,6.54-25,6.54-17,0-26.69-9.51t-9.65-24.85q0-16.74,10.49-26.94t26-10.2q15.35,0,23.77,7.33V51.18h-9.51q-2.09-8-5.3-12.13t-9.16-4.11a12,12,0,0,0-7.23,2.23,14.31,14.31,0,0,0-4.75,6.19,37.09,37.09,0,0,0-2.43,8.56A63.9,63.9,0,0,0,524,62q0,13.47,4.26,21.49T540.59,91.49Z"/></g><g class="cls-2"><path class="cls-1" d="M597.14,42.27V59.6Q600,50,603.38,46.38a11.48,11.48,0,0,1,8.81-3.62A8.9,8.9,0,0,1,616.65,44V59.6h-2.38q-12.09,0-17.13,3.56v23c0,2,.51,3.35,1.53,3.91a22.26,22.26,0,0,0,6.39,1.53v6.64H572.48V91.58c2.44-.33,4.06-.8,4.85-1.43s1.19-2,1.19-4.21V57.12L573,51.28V47.71l20.8-5.44Z"/></g><g class="cls-2"><path class="cls-1" d="M646.64,98.42,625.45,54.25A5.79,5.79,0,0,0,623.67,52a15.08,15.08,0,0,0-3.76-1.68V43.75h33.27v6.54a22.19,22.19,0,0,0-5.4,1.24,2.34,2.34,0,0,0-1.33,2.32,12.1,12.1,0,0,0,1.08,3.87l8.32,20.2,8.52-20.3a12,12,0,0,0,1.09-3.77,2.46,2.46,0,0,0-1.29-2.37,17.63,17.63,0,0,0-5.25-1.19V43.75h21.59v6.54a16.46,16.46,0,0,0-3.76,1.63A5.3,5.3,0,0,0,675,54.25l-22.88,51.2q-3.17,7-6.78,10.2a12.87,12.87,0,0,1-8.77,3.17q-6,0-8.51-3.86v-9.41H634q5.64,0,8-1t4.21-5.1Z"/></g><g class="cls-2"><path class="cls-1" d="M708.24,97v8.42c0,2.18.4,3.58,1.19,4.21s2.38,1.1,4.75,1.43v6.64h-30.6v-6.64c2.45-.33,4.06-.81,4.86-1.43s1.19-2,1.19-4.21V57.12l-5.55-5.84V47.71L705,42.27h3.26v10.1q5.25-9.6,15.85-9.61,9.51,0,15.2,6.69T745,68.11q0,14.27-7.92,22.68t-20.3,8.42Q711.12,99.21,708.24,97Zm7-4.65q5.06,0,7.93-5.25t2.87-13.67q0-9.1-3.32-14.16t-8.76-5a12.66,12.66,0,0,0-5.75,1.29V82.08c0,3.43.53,6,1.59,7.72S712.7,92.38,715.27,92.38Z"/></g><g class="cls-2"><path class="cls-1" d="M774.89,31.18V43.75h13.17v7.43H774.89v30.5q0,6.84,6.14,6.83a16.26,16.26,0,0,0,7.33-1.88l2,5.05A24.5,24.5,0,0,1,772,99.21q-15.94,0-15.94-15.75V51.18h-6.54V45.73a34.39,34.39,0,0,0,10.15-5.64,59.26,59.26,0,0,0,9.36-8.91Z"/><path class="cls-1" d="M821.24,99.21q-12.29,0-19.91-7.77t-7.62-19.56q0-13.17,8.17-21.15t20.94-8q12.39,0,20,7.78T850.45,70q0,13.26-8.22,21.24T821.24,99.21Zm1.78-7q3.87,0,6-5T831.24,74q0-10.69-2.67-17.48t-7.43-6.78q-4,0-6.14,5T812.82,68q0,10.7,2.72,17.43T823,92.18Z"/></g></g></g></g></svg>